<svg width="40" height="49" viewBox="0 0 40 49" fill="none" xmlns="http://www.w3.org/2000/svg">
<path fill-rule="evenodd" clip-rule="evenodd" d="M29 35C29 40.428 22.6665 46.6012 20.6256 48.4496C20.2667 48.7746 19.7333 48.7746 19.3744 48.4496C17.3335 46.6012 11 40.428 11 35C11 30.0294 15.0294 26 20 26C24.9706 26 29 30.0294 29 35ZM23.25 35C23.25 36.7949 21.7949 38.25 20 38.25C18.2051 38.25 16.75 36.7949 16.75 35C16.75 33.2051 18.2051 31.75 20 31.75C21.7949 31.75 23.25 33.2051 23.25 35Z" fill="#038CD2"/>
<rect width="40" height="40" rx="10" fill="#038CD2"/>
<path fill-rule="evenodd" clip-rule="evenodd" d="M19.2311 12.0582C19.5157 11.3738 20.4852 11.3738 20.7699 12.0582L22.7777 16.8857L27.9894 17.3035C28.7283 17.3627 29.0279 18.2848 28.465 18.767L24.4942 22.1684L25.7073 27.2541C25.8793 27.9751 25.095 28.5449 24.4624 28.1586L20.0005 25.4333L15.5386 28.1586C14.906 28.5449 14.1216 27.9751 14.2936 27.2541L15.5068 22.1684L11.536 18.767C10.9731 18.2848 11.2727 17.3627 12.0116 17.3035L17.2232 16.8857L19.2311 12.0582Z" fill="#EEF2F5"/>
</svg>
