<svg width="29" height="29" viewBox="0 0 29 29" fill="none" xmlns="http://www.w3.org/2000/svg">
<g clip-path="url(#clip0_225_9516)">
<path d="M0 5.48685C0 2.45688 2.34843 0 5.24548 0H23.3132C26.2102 0 28.5587 2.45667 28.5587 5.48685V23.1676C28.5587 26.198 26.2102 28.6547 23.3132 28.6547H5.24548C2.34843 28.6547 0 26.198 0 23.1676V5.48707V5.48685Z" fill="#A6A8B5"/>
<path fill-rule="evenodd" clip-rule="evenodd" d="M26.0097 3.54132C26.2944 3.71017 26.5016 3.98747 26.5859 4.31223C26.6702 4.637 26.6246 4.98262 26.4592 5.27308L17.7231 20.6052L14.7491 16.7422L11.2633 22.6681L8.22321 18.7202L4.642 23.9119C4.54884 24.0496 4.42986 24.1671 4.29192 24.2577C4.15399 24.3483 3.99984 24.41 3.83837 24.4395C3.6769 24.4689 3.51132 24.4654 3.35119 24.4291C3.19106 24.3929 3.03956 24.3247 2.90542 24.2284C2.77128 24.132 2.65719 24.0096 2.5697 23.868C2.48222 23.7265 2.4231 23.5686 2.39574 23.4036C2.36839 23.2386 2.37335 23.0697 2.41034 22.9067C2.44732 22.7437 2.5156 22.5897 2.61123 22.4538L8.11397 14.4765L10.9889 18.2107L14.4746 12.2846L17.4153 16.1037L24.3121 3.9997C24.3941 3.85588 24.503 3.72993 24.6327 3.62906C24.7623 3.52819 24.9102 3.45436 25.0678 3.41179C25.2255 3.36923 25.3898 3.35876 25.5514 3.38098C25.7129 3.40321 25.8687 3.45769 26.0097 3.54132Z" fill="#F7F8FA"/>
</g>
<defs>
<clipPath id="clip0_225_9516">
<rect width="29" height="29" fill="white"/>
</clipPath>
</defs>
</svg>
